<svg fill="none" xmlns="http://www.w3.org/2000/svg" viewBox="0 0 20 21">
	<path d="M10.1784 5.661c-2.64941 0-4.7864 2.23925-4.7864 5.0154 0 2.7761 2.13699 5.0154 4.7864 5.0154 2.6493 0 4.7863-2.2393 4.7863-5.0154 0-2.77615-2.137-5.0154-4.7863-5.0154Zm0 8.2761c-1.71214 0-3.1118-1.4623-3.1118-3.2607 0-1.79838 1.3955-3.26066 3.1118-3.26066 1.7162 0 3.1117 1.46228 3.1117 3.26066 0 1.7984-1.3997 3.2607-3.1117 3.2607Zm6.0985-8.48125c0 .65039-.4999 1.16982-1.1164 1.16982-.6207 0-1.1164-.5238-1.1164-1.16982s.4999-1.16982 1.1164-1.16982 1.1164.5238 1.1164 1.16982Zm3.1701 1.18728c-.0709-1.56704-.4124-2.95511-1.508-4.09874-1.0914-1.14363-2.4161-1.50156-3.9116-1.580133-1.5413-.091665-6.16099-.091665-7.70229 0-1.49131.074203-2.81599.432133-3.91156 1.575763C1.31798 3.68366.980557 5.07173.905575 6.63877c-.087479 1.61505-.087479 6.45583 0 8.07093.070816 1.567.412405 2.9551 1.507975 4.0987 1.09557 1.1436 2.41608 1.5016 3.91156 1.5801 1.5413.0917 6.16099.0917 7.70229 0 1.4955-.0742 2.8202-.4321 3.9116-1.5801 1.0914-1.1436 1.433-2.5317 1.508-4.0987.0874-1.6151.0874-6.45152 0-8.06657Zm-1.9912 9.79947c-.3249.8555-.954 1.5146-1.7746 1.8595-1.2289.5107-4.1448.3928-5.5028.3928-1.35806 0-4.27819.1135-5.5029-.3928-.81647-.3405-1.44548-.9996-1.77457-1.8595-.48738-1.2877-.37491-4.3432-.37491-5.7662 0-1.42299-.10831-4.48286.37491-5.76618.32492-.85554.95394-1.51465 1.77457-1.85949 1.22888-.51071 4.14484-.39285 5.5029-.39285 1.358 0 4.2781-.11349 5.5028.39285.8165.34047 1.4455.99959 1.7746 1.85949.4874 1.28768.3749 4.34319.3749 5.76618 0 1.423.1125 4.4829-.3749 5.7662Z"
		  fill="#05539D"/>
</svg>
