<svg fill="none" xmlns="http://www.w3.org/2000/svg" viewBox="0 0 26 19">
	<path d="M13.2554 2.44953c.0527 0 5.2542 0 8.6882.24758l.1513.01375c.4585.04127.9536.08941 1.4396.59144.2292.22924.4906 1.04075.58 1.62073.1449 1.27184.2214 2.55054.2292 3.83059v1.88898c-.0081 1.2808-.0846 2.5602-.2292 3.8328-.0848.5663-.3531 1.3892-.5777 1.6047-.4837.4998-.9903.5479-1.4373.5915l-.1559.016c-3.3744.2292-8.4567.2522-8.6859.2522-.2636 0-6.41872-.0619-8.3833-.2293-.11692-.0183-.22924-.0344-.3622-.0481-.52267-.0619-1.1164-.133-1.54279-.5754-.22924-.2292-.49057-1.0385-.57768-1.6161-.14492-1.2719-.22144-2.5506-.22924-3.8306V8.76967c.00815-1.28004.08467-2.55872.22924-3.8306.0894-.58456.35532-1.39607.57998-1.62072.48598-.50204.9926-.54788 1.43962-.59144l.1513-.01375c3.43859-.24529 8.63547-.24758 8.68587-.24758h.0069v-.01605Zm0-1.474011s-5.29315 0-8.82114.252161c-.49287.05731-1.56571.0619-2.52164 1.05221-.7542.75649-1.001778 2.4735-1.001778 2.4735-.1603 1.33302-.248304 2.67374-.263625 4.01628v1.88893c.01091 1.3477.095088 2.6938.252163 4.0323 0 0 .24529 1.717 1.00178 2.4712.96051.9903 2.21904.9605 2.78067 1.066 2.01731.1903 8.57357.2499 8.57357.2499s5.2977 0 8.828-.2591c.4929-.0573 1.568-.0642 2.5216-1.0545.7542-.7542 1.0018-2.4712 1.0018-2.4712.1586-1.3384.2443-2.6845.2568-4.0323V8.77196c-.011-1.34768-.0951-2.69378-.2522-4.03233 0 0-.2453-1.717-1.0018-2.47349-.9582-.99032-2.0333-.99719-2.5216-1.05221-3.5349-.254458-8.8326-.254457-8.8326-.254457v.016046Z"
		  fill="#05539D"/>
	<path d="M10.9924 5.96143v7.51447l6.4164-3.75724-6.4164-3.75723Z" fill="#05539D"/>
</svg>
